<?xml version="1.0" encoding="UTF-8"?>
<svg width="595" height="595" viewBox="0 0 595 595" xmlns="http://www.w3.org/2000/svg">
    <g id="Gruppo">
        <g id="g1">
            <linearGradient id="linearGradient1" x1="606.909751" y1="95.011239" x2="64.439736" y2="556.964826" gradientUnits="userSpaceOnUse">
                <stop offset="1e-05" stop-color="#5f2984" stop-opacity="1"/>
                <stop offset="0.12" stop-color="#54297c" stop-opacity="1"/>
                <stop offset="0.62" stop-color="#2c2960" stop-opacity="1"/>
                <stop offset="0.72" stop-color="#322c67" stop-opacity="1"/>
                <stop offset="0.88" stop-color="#43357d" stop-opacity="1"/>
                <stop offset="1" stop-color="#533e91" stop-opacity="1"/>
            </linearGradient>
            <path id="Percorso" fill="url(#linearGradient1)" stroke="none" d="M 329.808533 1.565491 C 336.339691 175.261688 408.271057 280.262573 579.307495 298.304504 C 408.83255 316.287354 337.935516 428.233093 329.971039 592.886169 C 478.990723 576.691284 595 450.560211 595 297.240601 C 595 143.92099 478.902069 17.671692 329.808533 1.565491 Z"/>
            <linearGradient id="linearGradient2" x1="546.104997" y1="23.597053" x2="3.634982" y2="485.565417" gradientUnits="userSpaceOnUse">
                <stop offset="1e-05" stop-color="#5f2984" stop-opacity="1"/>
                <stop offset="0.12" stop-color="#54297c" stop-opacity="1"/>
                <stop offset="0.62" stop-color="#2c2960" stop-opacity="1"/>
                <stop offset="0.72" stop-color="#322c67" stop-opacity="1"/>
                <stop offset="0.88" stop-color="#43357d" stop-opacity="1"/>
                <stop offset="1" stop-color="#533e91" stop-opacity="1"/>
            </linearGradient>
            <path id="path1" fill="url(#linearGradient2)" stroke="none" d="M 15.707275 298.304504 C 186.640305 280.262573 265.501801 165.065979 264.349243 1.698425 C 115.669403 18.203674 -0 144.15741 -0 297.240601 C -0 450.323792 115.403419 575.982056 263.846802 592.708862 C 244.120377 400.749084 186.28566 316.302094 15.692495 298.304504 Z"/>
        </g>
        <linearGradient id="linearGradient3" x1="576.662526" y1="59.488851" x2="34.207287" y2="521.442438" gradientUnits="userSpaceOnUse">
            <stop offset="1e-05" stop-color="#5f2984" stop-opacity="1"/>
            <stop offset="0.12" stop-color="#54297c" stop-opacity="1"/>
            <stop offset="0.62" stop-color="#2c2960" stop-opacity="1"/>
            <stop offset="0.72" stop-color="#322c67" stop-opacity="1"/>
            <stop offset="0.88" stop-color="#43357d" stop-opacity="1"/>
            <stop offset="1" stop-color="#533e91" stop-opacity="1"/>
        </linearGradient>
        <path id="path2" fill="url(#linearGradient3)" stroke="none" d="M 341.142029 297.225861 C 341.142029 321.324585 321.60614 340.860474 297.507416 340.860474 C 273.40863 340.860474 253.872742 321.324585 253.872742 297.225861 C 253.872742 273.127106 273.40863 253.591187 297.507416 253.591187 C 321.60614 253.591187 341.142029 273.127106 341.142029 297.225861 Z"/>
    </g>
</svg>
